<mxfile compressed="false" host="app.diagrams.net" modified="2022-02-01T00:48:47.063Z" agent="5.0 (Windows NT 10.0; Win64; x64) AppleWebKit/537.36 (KHTML, like Gecko) Chrome/97.0.4692.99 Safari/537.36" etag="BYbKREhD5f1_g6epK2gA" version="16.2.7" type="device">
  <diagram id="ea3e57a8-d32c-4c72-8a98-81eb4ca64633" name="Generated diagram">
    <mxGraphModel dx="2574" dy="1411" grid="1" gridSize="10" guides="1" tooltips="1" connect="1" arrows="1" fold="1" page="1" pageScale="1" pageWidth="850" pageHeight="1100" math="0" shadow="0">
      <root>
        <mxCell id="0" />
        <mxCell id="1" parent="0" />
        <UserObject label="Developer" link="../../participants/developer/index.html" id="14892627_1267_49f1_a03c_231c3d11a5ea">
          <mxCell style="fillColor=#e0e0ff;verticalAlign=top" parent="1" vertex="1">
            <mxGeometry x="40" y="230" width="570" height="270" as="geometry" />
          </mxCell>
        </UserObject>
        <UserObject label="Develop a story" link="elements/develop/index.html" id="c012383c_2037_4629_8895_657000095055">
          <mxCell style="fillColor=#f5f5f5;verticalAlign=top;fontColor=#333333;strokeColor=#666666;" parent="14892627_1267_49f1_a03c_231c3d11a5ea" vertex="1">
            <mxGeometry x="320" y="30" width="240" height="230" as="geometry" />
          </mxCell>
        </UserObject>
        <UserObject id="f0bfe9d0_f3e7_4a4b_989d_3e2af8226ab9">
          <mxCell style="fillColor=#000000;" parent="c012383c_2037_4629_8895_657000095055" vertex="1">
            <mxGeometry x="40" y="150" width="90" height="10" as="geometry" />
          </mxCell>
        </UserObject>
        <UserObject label="Peer review" link="elements/develop/elements/peer-review/index.html" id="426657ef_d53c_4594_99f5_f8dfaa8cfa3d">
          <mxCell style="fillColor=#fefece" parent="c012383c_2037_4629_8895_657000095055" vertex="1">
            <mxGeometry x="40" y="190" width="91" height="30" as="geometry" />
          </mxCell>
        </UserObject>
        <UserObject label="Code" link="elements/develop/elements/code/index.html" id="954138cf_f7fe_415f_b6a0_3bb0146bd99c">
          <mxCell style="fillColor=#fefece" parent="c012383c_2037_4629_8895_657000095055" vertex="1">
            <mxGeometry x="60" y="40" width="42" height="30" as="geometry" />
          </mxCell>
        </UserObject>
        <UserObject label="Unit test" link="elements/develop/elements/unit-test/index.html" id="4cd0d1f5_4bba_4f7a_b1e6_4dc4ce418efe">
          <mxCell style="fillColor=#fefece" parent="c012383c_2037_4629_8895_657000095055" vertex="1">
            <mxGeometry x="90" y="100" width="77" height="30" as="geometry" />
          </mxCell>
        </UserObject>
        <UserObject label="Document" link="elements/develop/elements/document/index.html" id="c43ed620_6d9f_4530_b2c4_fc4f3221c358">
          <mxCell style="fillColor=#fefece" parent="c012383c_2037_4629_8895_657000095055" vertex="1">
            <mxGeometry x="10" y="100" width="70" height="30" as="geometry" />
          </mxCell>
        </UserObject>
        <UserObject id="3">
          <mxCell style="strokeColor=#000000" parent="c012383c_2037_4629_8895_657000095055" source="f0bfe9d0_f3e7_4a4b_989d_3e2af8226ab9" target="426657ef_d53c_4594_99f5_f8dfaa8cfa3d" edge="1">
            <mxGeometry relative="1" as="geometry" />
          </mxCell>
        </UserObject>
        <UserObject id="5">
          <mxCell style="strokeColor=#000000" parent="c012383c_2037_4629_8895_657000095055" source="954138cf_f7fe_415f_b6a0_3bb0146bd99c" target="4cd0d1f5_4bba_4f7a_b1e6_4dc4ce418efe" edge="1">
            <mxGeometry relative="1" as="geometry" />
          </mxCell>
        </UserObject>
        <UserObject id="6">
          <mxCell style="strokeColor=#000000" parent="c012383c_2037_4629_8895_657000095055" source="954138cf_f7fe_415f_b6a0_3bb0146bd99c" target="c43ed620_6d9f_4530_b2c4_fc4f3221c358" edge="1">
            <mxGeometry relative="1" as="geometry" />
          </mxCell>
        </UserObject>
        <UserObject id="7">
          <mxCell style="strokeColor=#000000" parent="c012383c_2037_4629_8895_657000095055" source="4cd0d1f5_4bba_4f7a_b1e6_4dc4ce418efe" target="f0bfe9d0_f3e7_4a4b_989d_3e2af8226ab9" edge="1">
            <mxGeometry relative="1" as="geometry" />
          </mxCell>
        </UserObject>
        <UserObject id="8">
          <mxCell style="strokeColor=#000000" parent="c012383c_2037_4629_8895_657000095055" source="c43ed620_6d9f_4530_b2c4_fc4f3221c358" target="f0bfe9d0_f3e7_4a4b_989d_3e2af8226ab9" edge="1">
            <mxGeometry relative="1" as="geometry" />
          </mxCell>
        </UserObject>
        <UserObject label="Build" link="elements/build/index.html" id="0be820b5_b197_4136_a4d4_dc05d66c745f">
          <mxCell style="fillColor=#fefece" parent="c012383c_2037_4629_8895_657000095055" vertex="1">
            <mxGeometry x="180" y="190" width="49" height="30" as="geometry" />
          </mxCell>
        </UserObject>
        <UserObject id="4">
          <mxCell style="strokeColor=#000000" parent="c012383c_2037_4629_8895_657000095055" source="426657ef_d53c_4594_99f5_f8dfaa8cfa3d" target="0be820b5_b197_4136_a4d4_dc05d66c745f" edge="1">
            <mxGeometry relative="1" as="geometry" />
          </mxCell>
        </UserObject>
        <UserObject label="Product Owner" link="../../participants/product-owner/index.html" id="23915f8c_1e1b_4cd8_bee4_569a71f87302">
          <mxCell style="fillColor=#e0e0ff;verticalAlign=top" parent="1" vertex="1">
            <mxGeometry x="40" y="40" width="570" height="80" as="geometry" />
          </mxCell>
        </UserObject>
        <UserObject id="f46a5c3e_ed0d_4fa9_9bf1_e2a5f43f297e">
          <mxCell style="fillColor=#fefece;shape=mxgraph.flowchart.decision" parent="23915f8c_1e1b_4cd8_bee4_569a71f87302" vertex="1">
            <mxGeometry x="280" y="30" width="30" height="30" as="geometry" />
          </mxCell>
        </UserObject>
        <UserObject label="Groom a story" link="elements/groom/index.html" id="7a3799fe_9851_4150_9c1c_26822fc976c7">
          <mxCell style="fillColor=#fefece" parent="23915f8c_1e1b_4cd8_bee4_569a71f87302" vertex="1">
            <mxGeometry x="150" y="30" width="105" height="30" as="geometry" />
          </mxCell>
        </UserObject>
        <UserObject label="Create a story" link="elements/create/index.html" id="8356cdc3_2fd2_409f_ba52_6c5bb3f743fc">
          <mxCell style="fillColor=#fefece" parent="23915f8c_1e1b_4cd8_bee4_569a71f87302" vertex="1">
            <mxGeometry x="10" y="30" width="112" height="30" as="geometry" />
          </mxCell>
        </UserObject>
        <UserObject id="11">
          <mxCell style="strokeColor=#000000" parent="23915f8c_1e1b_4cd8_bee4_569a71f87302" source="7a3799fe_9851_4150_9c1c_26822fc976c7" target="f46a5c3e_ed0d_4fa9_9bf1_e2a5f43f297e" edge="1">
            <mxGeometry relative="1" as="geometry" />
          </mxCell>
        </UserObject>
        <UserObject id="12">
          <mxCell style="strokeColor=#000000" parent="23915f8c_1e1b_4cd8_bee4_569a71f87302" source="8356cdc3_2fd2_409f_ba52_6c5bb3f743fc" target="7a3799fe_9851_4150_9c1c_26822fc976c7" edge="1">
            <mxGeometry relative="1" as="geometry" />
          </mxCell>
        </UserObject>
        <UserObject label="Tester" link="../../participants/tester/index.html" id="fe7b262a_5249_4beb_bf85_563c2e4b12b4">
          <mxCell style="fillColor=#e0e0ff;verticalAlign=top" parent="1" vertex="1">
            <mxGeometry x="40" y="510" width="570" height="65" as="geometry" />
          </mxCell>
        </UserObject>
        <UserObject label="Test" link="elements/test/index.html" id="421dcd51_62df_4e68_82b8_19a52bbe16de">
          <mxCell style="fillColor=#fefece" parent="fe7b262a_5249_4beb_bf85_563c2e4b12b4" vertex="1">
            <mxGeometry x="503.5" y="25" width="42" height="30" as="geometry" />
          </mxCell>
        </UserObject>
        <UserObject label="Architect" link="../../participants/architect/index.html" id="3f56818a_2801_440f_99be_b27be7698334">
          <mxCell style="fillColor=#e0e0ff;verticalAlign=top" parent="1" vertex="1">
            <mxGeometry x="40" y="130" width="570" height="90" as="geometry" />
          </mxCell>
        </UserObject>
        <UserObject label="Architectural review" link="elements/architectural-review/index.html" id="b6a3ba6b_088c_4f0a_b893_205eba90701b">
          <mxCell style="fillColor=#fefece" parent="3f56818a_2801_440f_99be_b27be7698334" vertex="1">
            <mxGeometry x="233.5" y="30" width="123" height="30" as="geometry" />
          </mxCell>
        </UserObject>
        <UserObject id="2">
          <mxCell style="strokeColor=#000000" parent="1" source="0be820b5_b197_4136_a4d4_dc05d66c745f" target="421dcd51_62df_4e68_82b8_19a52bbe16de" edge="1">
            <mxGeometry relative="1" as="geometry" />
          </mxCell>
        </UserObject>
        <UserObject id="9">
          <mxCell style="strokeColor=#000000" parent="1" source="f46a5c3e_ed0d_4fa9_9bf1_e2a5f43f297e" target="954138cf_f7fe_415f_b6a0_3bb0146bd99c" edge="1">
            <mxGeometry relative="1" as="geometry">
              <Array as="points">
                <mxPoint x="441" y="85" />
              </Array>
            </mxGeometry>
          </mxCell>
        </UserObject>
        <UserObject id="10">
          <mxCell style="strokeColor=#000000" parent="1" source="f46a5c3e_ed0d_4fa9_9bf1_e2a5f43f297e" target="b6a3ba6b_088c_4f0a_b893_205eba90701b" edge="1">
            <mxGeometry relative="1" as="geometry" />
          </mxCell>
        </UserObject>
        <UserObject id="13">
          <mxCell style="strokeColor=#000000" parent="1" source="b6a3ba6b_088c_4f0a_b893_205eba90701b" target="954138cf_f7fe_415f_b6a0_3bb0146bd99c" edge="1">
            <mxGeometry relative="1" as="geometry" />
          </mxCell>
        </UserObject>
      </root>
    </mxGraphModel>
  </diagram>
</mxfile>
